<?xml version="1.0" encoding="UTF-8" standalone="no"?>
<!DOCTYPE svg PUBLIC "-//W3C//DTD SVG 1.1//EN" "http://www.w3.org/Graphics/SVG/1.1/DTD/svg11.dtd">
<svg width="100%" height="100%" viewBox="0 0 651 155" version="1.1" xmlns="http://www.w3.org/2000/svg" xmlns:xlink="http://www.w3.org/1999/xlink" xml:space="preserve" xmlns:serif="http://www.serif.com/" style="fill-rule:evenodd;clip-rule:evenodd;stroke-linejoin:round;stroke-miterlimit:2;">
    <g transform="matrix(1,0,0,1,-132.395,-178.766)">
        <g transform="matrix(0.63178,0,0,0.63178,-176.549,-1030.87)">
            <g transform="matrix(7.38702,0,0,7.38702,402.703,1686.11)">
                <path d="M49.785,30.938L54.753,30.938L54.753,64.071L49.785,64.071L49.785,30.938ZM44.817,44.995L44.817,64.071L39.848,64.071L39.848,49.963L44.817,44.995ZM59.73,40.476L59.73,30.938L64.698,30.938L64.698,35.507L59.73,40.476ZM28.25,47.504L11.683,30.938L11.683,37.966L28.25,54.533L44.817,37.966L44.817,30.938L28.25,47.504ZM66.75,47.504L83.317,30.938L76.288,30.938L59.73,47.504L76.288,64.071L83.317,64.071L66.75,47.504Z" style="fill:white;fill-rule:nonzero;"/>
            </g>
            <g transform="matrix(7.38702,0,0,7.38702,506.235,1686.11)">
                <path d="M83.317,64.071L83.317,30.938L76.288,30.938L59.73,47.504L76.288,64.071L83.317,64.071Z" style="fill:rgb(243,113,2);fill-rule:nonzero;"/>
            </g>
            <g transform="matrix(63.8013,0,0,7.38702,-3797.51,1686.11)">
                <rect x="76.288" y="30.938" width="7.029" height="33.133" style="fill:rgb(243,113,2);fill-rule:nonzero;"/>
            </g>
            <g transform="matrix(4.81334,0,0,4.81334,-4167.41,-3618.96)">
                <g transform="matrix(50,0,0,50,1087.2,1192.86)">
                    <path d="M0.377,-0.449L0.379,-0.449L0.445,-0.065C0.456,0 0.465,0.013 0.536,0.013C0.605,0.013 0.619,0.004 0.631,-0.06L0.733,-0.623C0.737,-0.643 0.739,-0.657 0.739,-0.671C0.739,-0.713 0.718,-0.733 0.674,-0.733C0.637,-0.733 0.612,-0.719 0.605,-0.673L0.533,-0.175L0.531,-0.175L0.441,-0.678C0.435,-0.714 0.422,-0.733 0.38,-0.733C0.338,-0.733 0.325,-0.714 0.319,-0.678L0.238,-0.175L0.236,-0.175L0.154,-0.677C0.149,-0.71 0.133,-0.733 0.092,-0.733C0.046,-0.733 0.02,-0.708 0.02,-0.674C0.02,-0.662 0.023,-0.645 0.027,-0.622L0.136,-0.046C0.143,-0.008 0.16,0.013 0.224,0.013C0.28,0.013 0.302,0.004 0.31,-0.042L0.377,-0.449Z" style="fill:white;fill-rule:nonzero;"/>
                </g>
                <g transform="matrix(50,0,0,50,1125.15,1192.86)">
                    <path d="M0.059,-0.06C0.059,-0.01 0.083,0.013 0.12,0.013C0.157,0.013 0.181,-0.01 0.181,-0.06L0.181,-0.481C0.181,-0.531 0.157,-0.554 0.12,-0.554C0.083,-0.554 0.059,-0.531 0.059,-0.481L0.059,-0.06ZM0.05,-0.667C0.05,-0.628 0.081,-0.597 0.12,-0.597C0.159,-0.597 0.19,-0.628 0.19,-0.667C0.19,-0.706 0.159,-0.737 0.12,-0.737C0.081,-0.737 0.05,-0.706 0.05,-0.667Z" style="fill:white;fill-rule:nonzero;"/>
                </g>
                <g transform="matrix(50,0,0,50,1137.15,1192.86)">
                    <path d="M0.056,-0.056C0.056,-0.014 0.087,0.013 0.123,0.013C0.159,0.013 0.19,-0.014 0.19,-0.056L0.19,-0.197L0.245,-0.28L0.359,-0.041C0.376,-0.006 0.389,0.013 0.431,0.013C0.476,0.013 0.502,-0.013 0.502,-0.045C0.502,-0.059 0.496,-0.075 0.488,-0.091L0.332,-0.412L0.463,-0.623C0.473,-0.639 0.481,-0.66 0.481,-0.675C0.481,-0.709 0.45,-0.733 0.414,-0.733C0.386,-0.733 0.37,-0.723 0.352,-0.691L0.192,-0.4L0.19,-0.4L0.19,-0.664C0.19,-0.706 0.159,-0.733 0.123,-0.733C0.087,-0.733 0.056,-0.706 0.056,-0.664L0.056,-0.056Z" style="fill:white;fill-rule:nonzero;"/>
                </g>
                <g transform="matrix(50,0,0,50,1163.1,1192.86)">
                    <path d="M0.059,-0.06C0.059,-0.01 0.083,0.013 0.12,0.013C0.157,0.013 0.181,-0.01 0.181,-0.06L0.181,-0.481C0.181,-0.531 0.157,-0.554 0.12,-0.554C0.083,-0.554 0.059,-0.531 0.059,-0.481L0.059,-0.06ZM0.05,-0.667C0.05,-0.628 0.081,-0.597 0.12,-0.597C0.159,-0.597 0.19,-0.628 0.19,-0.667C0.19,-0.706 0.159,-0.737 0.12,-0.737C0.081,-0.737 0.05,-0.706 0.05,-0.667Z" style="fill:white;fill-rule:nonzero;"/>
                </g>
            </g>
        </g>
    </g>
</svg>
