<?xml version="1.0" encoding="UTF-8" standalone="no"?>
<!DOCTYPE svg PUBLIC "-//W3C//DTD SVG 1.1//EN" "http://www.w3.org/Graphics/SVG/1.1/DTD/svg11.dtd">
<svg width="100%" height="100%" viewBox="0 0 330 153" version="1.1" xmlns="http://www.w3.org/2000/svg" xmlns:xlink="http://www.w3.org/1999/xlink" xml:space="preserve" xmlns:serif="http://www.serif.com/" style="fill-rule:evenodd;clip-rule:evenodd;stroke-linejoin:round;stroke-miterlimit:2;">
    <g transform="matrix(1,0,0,1,-132.395,-430.632)">
        <g transform="matrix(0.622157,0,0,0.622157,-171.843,-531.149)">
            <g transform="matrix(7.38702,0,0,7.38702,402.703,1317.34)">
                <path d="M49.785,30.938L54.753,30.938L54.753,64.071L49.785,64.071L49.785,30.938ZM44.817,44.995L44.817,64.071L39.848,64.071L39.848,49.963L44.817,44.995ZM59.73,40.476L59.73,30.938L64.698,30.938L64.698,35.507L59.73,40.476ZM28.25,47.504L11.683,30.938L11.683,37.966L28.25,54.533L44.817,37.966L44.817,30.938L28.25,47.504ZM66.75,47.504L83.317,30.938L76.288,30.938L59.73,47.504L76.288,64.071L83.317,64.071L66.75,47.504Z" style="fill:white;fill-rule:nonzero;"/>
            </g>
        </g>
    </g>
</svg>
